<?xml version="1.0" encoding="UTF-8" standalone="no"?>
<!-- Created with Inkscape (http://www.inkscape.org/) -->

<svg
   xmlns:dc="http://purl.org/dc/elements/1.1/"
   xmlns:cc="http://creativecommons.org/ns#"
   xmlns:rdf="http://www.w3.org/1999/02/22-rdf-syntax-ns#"
   xmlns:svg="http://www.w3.org/2000/svg"
   xmlns="http://www.w3.org/2000/svg"
   xmlns:sodipodi="http://sodipodi.sourceforge.net/DTD/sodipodi-0.dtd"
   xmlns:inkscape="http://www.inkscape.org/namespaces/inkscape"
   id="svg2"
   version="1.1"
   inkscape:version="0.91 r13725"
   xml:space="preserve"
   width="307.94876"
   height="108.852"
   viewBox="0 0 307.94876 108.85199"
   sodipodi:docname="BHL.svg"><metadata
     id="metadata8"><rdf:RDF><cc:Work
         rdf:about=""><dc:format>image/svg+xml</dc:format><dc:type
           rdf:resource="http://purl.org/dc/dcmitype/StillImage" /><dc:title></dc:title></cc:Work></rdf:RDF></metadata><defs
     id="defs6" /><sodipodi:namedview
     pagecolor="#ffffff"
     bordercolor="#666666"
     borderopacity="1"
     objecttolerance="10"
     gridtolerance="10"
     guidetolerance="10"
     inkscape:pageopacity="0"
     inkscape:pageshadow="2"
     inkscape:window-width="2239"
     inkscape:window-height="1292"
     id="namedview4"
     showgrid="false"
     inkscape:zoom="0.69129813"
     inkscape:cx="-483.32"
     inkscape:cy="83.793753"
     inkscape:window-x="2826"
     inkscape:window-y="226"
     inkscape:window-maximized="0"
     inkscape:current-layer="g10"
     fit-margin-top="0"
     fit-margin-left="0"
     fit-margin-right="0"
     fit-margin-bottom="0" /><g
     id="g10"
     inkscape:groupmode="layer"
     inkscape:label="ink_ext_XXXXXX"
     transform="matrix(1.25,0,0,-1.25,-536.8425,108.852)"><path
       inkscape:connector-curvature="0"
       id="path22"
       style="fill:#5295d4;fill-opacity:1;fill-rule:nonzero;stroke:none"
       d="m 450.037,48.4891 c 0.803,-0.1485 3.074,-0.2696 6.421,-0.2696 11.883,0 22.31,6.536 22.31,16.827 0,9.2187 -6.692,16.0383 -20.848,16.0383 -4.26,0 -6.662,-0.2844 -7.734,-0.4231 z m -0.128,-37.402 c -0.128,-4.00624 2.55,-4.94491 11.351,-4.94491 10.689,0 22.295,4.94491 22.295,18.01291 0,8.1758 -6.258,18.0633 -25.478,18.0633 -4.56,0 -7.117,0 -8.04,-0.2762 z M 438.957,6.54219 c 0.39,0 0.668,0.13984 0.668,0.65976 l 0,73.21095 -10.002,0.3875 c 0,2.1344 0.121,4.1484 0.121,6.0086 5.874,0.1379 16.698,0.2726 23.367,0.2726 11.487,0 19.243,-0.6562 25.657,-3.4687 6.008,-2.9512 10.406,-9.3477 10.406,-16.2793 0,-9.8875 -7.075,-17.1172 -15.891,-20.1797 l 0,-0.8094 C 485.309,44.8824 494.656,35.9324 494.656,25.243 494.656,10.2922 481.58,0 461.4,0 458.077,0 447.658,0.119922 445.107,0.119922 l -15.633,0 c 0,2.016018 0,4.162108 0.149,6.165238 l 9.334,0.25703"
       sodipodi:nodetypes="cssscccssscccscccscsccsssccc" /><path
       inkscape:connector-curvature="0"
       id="path24"
       style="fill:#5295d4;fill-opacity:1;fill-rule:nonzero;stroke:none"
       d="m 520.084,6.80313 c 0.384,0 0.519,0.27773 0.519,0.54804 l 0,73.06173 -9.468,0.3875 c 0,1.875 0,4.1484 0.141,6.1465 4.533,0 10.279,-0.1379 15.214,-0.1379 5.356,0 11.373,0.1379 16.28,0.1379 0,-1.9981 0,-4.2715 -0.128,-6.2852 l -10.946,-0.2488 c -0.248,0 -0.397,-0.2621 -0.397,-0.5469 l 0,-30.709 c 0,-0.2695 0,-0.5402 0.547,-0.5402 l 43,0 0,31.7961 -11.365,0.2488 c 0,2.0137 0,4.2871 0.129,6.1473 l 16.706,0 c 4.95,0 10.149,0.1379 14.289,0.1379 0.136,-1.9981 0,-4.2715 -0.141,-6.1465 l -8.545,-0.3875 c -0.255,0 -0.255,-0.2621 -0.255,-0.5469 l -0.398,-73.06287 9.886,-0.38204 c 0,-2.01015 0,-4.14101 -0.141,-6.301168 -4.405,0 -10.15,0.148047 -15.236,0.148047 -5.326,0 -11.35,-0.148047 -16.165,-0.148047 0,2.016018 0.141,4.291018 0.141,6.301168 l 10.569,0.38204 c 0.391,0 0.526,0.13593 0.526,0.54804 l 0,34.19143 c 0,0.257 -0.135,0.5195 -0.526,0.5195 L 531.172,41.7996 531.021,6.80313 542.92,6.42109 c 0,-2.01015 0,-4.28515 -0.15,-6.301168 -4.788,0 -11.074,0.148047 -16.536,0.148047 -4.957,0 -10.425,-0.148047 -14.958,-0.148047 0,2.016018 0,4.162108 0.128,6.301168 l 8.68,0.38204"
       sodipodi:nodetypes="cscccscccsssccccscccccccscccsscccccsccc" /><path
       inkscape:connector-curvature="0"
       id="path26"
       style="fill:#5295d4;fill-opacity:1;fill-rule:nonzero;stroke:none"
       d="m 614.395,80.6617 c -0.15,2.0137 0,4.1481 0.121,6.1473 l 15.626,0 16.966,0 c 0,-1.9992 -0.134,-4.2613 -0.254,-6.2711 l -11.627,-0.2637 c -0.279,0 -0.279,-0.1234 -0.279,-0.5426 L 634.559,9.21211 c 0,-2.40898 0.127,-2.79102 5.746,-2.79102 14.816,0 19.092,0.38204 21.237,0.78086 1.2,0.27696 1.868,1.21524 2.4,2.81095 l 4.816,14.0293 c 2.53,-0.3981 4.922,-1.0723 7.075,-1.5981 C 674.49,15.8871 672.338,7.08086 670.627,0 664.205,0 648.047,0.119922 630.014,0.119922 624.395,0.119922 619.068,0 614.245,0 c 0,2.01602 0.15,4.28203 0.271,6.28516 l 9.089,0.39687 c 0.393,0 0.534,0.1211 0.534,0.51992 l 0,73.07225 -9.744,0.3875"
       sodipodi:nodetypes="ccccccccscccccscccscc" /></g></svg>