<?xml version="1.0" encoding="UTF-8" standalone="no"?>
<!DOCTYPE svg PUBLIC "-//W3C//DTD SVG 1.0//EN" "http://www.w3.org/TR/2001/PR-SVG-20010719/DTD/svg10.dtd">
<svg width="47cm" height="42cm" viewBox="1099 599 922 822" xmlns="http://www.w3.org/2000/svg" xmlns:xlink="http://www.w3.org/1999/xlink">
  <g>
    <rect style="fill: #ffffff" x="1940" y="860" width="80" height="60"/>
    <rect style="fill: none; fill-opacity:0; stroke-width: 2; stroke: #000000" x="1940" y="860" width="80" height="60"/>
    <text font-size="12.7998" style="fill: #000000;text-anchor:middle;font-family:sans-serif;font-style:normal;font-weight:normal" x="1980" y="893.9">
      <tspan x="1980" y="893.9">Tree</tspan>
    </text>
  </g>
  <g>
    <rect style="fill: #ffffff" x="1760" y="740" width="120" height="60"/>
    <rect style="fill: none; fill-opacity:0; stroke-width: 2; stroke: #00ff00" x="1760" y="740" width="120" height="60"/>
    <text font-size="12.7998" style="fill: #000000;text-anchor:middle;font-family:sans-serif;font-style:normal;font-weight:normal" x="1820" y="773.9">
      <tspan x="1820" y="773.9">Tree_version</tspan>
    </text>
  </g>
  <g>
    <rect style="fill: #ffffff" x="1100" y="600" width="120" height="80"/>
    <rect style="fill: none; fill-opacity:0; stroke-width: 2; stroke: #000000" x="1100" y="600" width="120" height="80"/>
    <text font-size="12.7998" style="fill: #000000;text-anchor:middle;font-family:sans-serif;font-style:normal;font-weight:normal" x="1160" y="627.9">
      <tspan x="1160" y="627.9">Tree Element</tspan>
      <tspan x="1160" y="643.9">Instance and</tspan>
      <tspan x="1160" y="659.9">Profile</tspan>
    </text>
  </g>
  <g>
    <rect style="fill: #ffffff" x="1280" y="600" width="180" height="80"/>
    <rect style="fill: none; fill-opacity:0; stroke-width: 2; stroke: #000000" x="1280" y="600" width="180" height="80"/>
    <text font-size="12.7998" style="fill: #000000;text-anchor:middle;font-family:sans-serif;font-style:normal;font-weight:normal" x="1370" y="635.9">
      <tspan x="1370" y="635.9">Tree Version Element</tspan>
      <tspan x="1370" y="651.9">Tree structure/Paths</tspan>
    </text>
  </g>
  <text font-size="12.7998" style="fill: #000000;text-anchor:start;font-family:sans-serif;font-style:normal;font-weight:normal" x="1360" y="620">
    <tspan x="1360" y="620"></tspan>
  </text>
  <g>
    <rect style="fill: #ffffff" x="1520" y="600" width="80" height="80"/>
    <rect style="fill: none; fill-opacity:0; stroke-width: 2; stroke: #000000" x="1520" y="600" width="80" height="80"/>
    <text font-size="12.7998" style="fill: #000000;text-anchor:middle;font-family:sans-serif;font-style:normal;font-weight:normal" x="1560" y="635.9">
      <tspan x="1560" y="635.9">TVE:TV</tspan>
      <tspan x="1560" y="651.9">taxonId</tspan>
    </text>
  </g>
  <g>
    <line style="fill: none; fill-opacity:0; stroke-width: 2; stroke: #00ff00" x1="1600.94" y1="660.471" x2="1750.32" y2="735.161"/>
    <polygon style="fill: #00ff00" points="1757.03,738.515 1745.85,738.515 1750.32,735.161 1750.32,729.571 "/>
    <polygon style="fill: none; fill-opacity:0; stroke-width: 2; stroke: #00ff00" points="1757.03,738.515 1745.85,738.515 1750.32,735.161 1750.32,729.571 "/>
  </g>
  <g>
    <line style="fill: none; fill-opacity:0; stroke-width: 2; stroke: #000000" x1="1519.09" y1="640" x2="1470.7" y2="640"/>
    <polygon style="fill: #000000" points="1463.2,640 1473.2,635 1470.7,640 1473.2,645 "/>
    <polygon style="fill: none; fill-opacity:0; stroke-width: 2; stroke: #000000" points="1463.2,640 1473.2,635 1470.7,640 1473.2,645 "/>
  </g>
  <g>
    <line style="fill: none; fill-opacity:0; stroke-width: 2; stroke: #000000" x1="1279.02" y1="640" x2="1230.7" y2="640"/>
    <polygon style="fill: #000000" points="1223.2,640 1233.2,635 1230.7,640 1233.2,645 "/>
    <polygon style="fill: none; fill-opacity:0; stroke-width: 2; stroke: #000000" points="1223.2,640 1233.2,635 1230.7,640 1233.2,645 "/>
  </g>
  <g>
    <line style="fill: none; fill-opacity:0; stroke-width: 2; stroke: #000000" x1="1861.34" y1="801.003" x2="1931.23" y2="853.426"/>
    <polygon style="fill: #000000" points="1937.23,857.926 1926.23,855.926 1931.23,853.426 1932.23,847.926 "/>
    <polygon style="fill: none; fill-opacity:0; stroke-width: 2; stroke: #000000" points="1937.23,857.926 1926.23,855.926 1931.23,853.426 1932.23,847.926 "/>
  </g>
  <g>
    <rect style="fill: #ffffff" x="1100" y="780" width="120" height="80"/>
    <rect style="fill: none; fill-opacity:0; stroke-width: 2; stroke: #000000" x="1100" y="780" width="120" height="80"/>
    <text font-size="12.7998" style="fill: #000000;text-anchor:middle;font-family:sans-serif;font-style:normal;font-weight:normal" x="1160" y="807.9">
      <tspan x="1160" y="807.9">Tree Element</tspan>
      <tspan x="1160" y="823.9">Instance and</tspan>
      <tspan x="1160" y="839.9">Profile</tspan>
    </text>
  </g>
  <g>
    <rect style="fill: #ffffff" x="1280" y="780" width="180" height="80"/>
    <rect style="fill: none; fill-opacity:0; stroke-width: 2; stroke: #000000" x="1280" y="780" width="180" height="80"/>
    <text font-size="12.7998" style="fill: #000000;text-anchor:middle;font-family:sans-serif;font-style:normal;font-weight:normal" x="1370" y="815.9">
      <tspan x="1370" y="815.9">Tree Version Element</tspan>
      <tspan x="1370" y="831.9">Tree structure/Paths</tspan>
    </text>
  </g>
  <text font-size="12.7998" style="fill: #000000;text-anchor:start;font-family:sans-serif;font-style:normal;font-weight:normal" x="1360" y="800">
    <tspan x="1360" y="800"></tspan>
  </text>
  <g>
    <rect style="fill: #ffffff" x="1520" y="780" width="80" height="80"/>
    <rect style="fill: none; fill-opacity:0; stroke-width: 2; stroke: #000000" x="1520" y="780" width="80" height="80"/>
    <text font-size="12.7998" style="fill: #000000;text-anchor:middle;font-family:sans-serif;font-style:normal;font-weight:normal" x="1560" y="815.9">
      <tspan x="1560" y="815.9">TVE:TV</tspan>
      <tspan x="1560" y="831.9">TaxonId</tspan>
    </text>
  </g>
  <g>
    <line style="fill: none; fill-opacity:0; stroke-width: 2; stroke: #000000" x1="1519.09" y1="820" x2="1470.7" y2="820"/>
    <polygon style="fill: #000000" points="1463.2,820 1473.2,815 1470.7,820 1473.2,825 "/>
    <polygon style="fill: none; fill-opacity:0; stroke-width: 2; stroke: #000000" points="1463.2,820 1473.2,815 1470.7,820 1473.2,825 "/>
  </g>
  <g>
    <line style="fill: none; fill-opacity:0; stroke-width: 2; stroke: #000000" x1="1279.02" y1="820" x2="1230.7" y2="820"/>
    <polygon style="fill: #000000" points="1223.2,820 1233.2,815 1230.7,820 1233.2,825 "/>
    <polygon style="fill: none; fill-opacity:0; stroke-width: 2; stroke: #000000" points="1223.2,820 1233.2,815 1230.7,820 1233.2,825 "/>
  </g>
  <g>
    <rect style="fill: #ffffff" x="1100" y="1060" width="120" height="80"/>
    <rect style="fill: none; fill-opacity:0; stroke-width: 2; stroke: #000000" x="1100" y="1060" width="120" height="80"/>
    <text font-size="12.7998" style="fill: #000000;text-anchor:middle;font-family:sans-serif;font-style:normal;font-weight:normal" x="1160" y="1087.9">
      <tspan x="1160" y="1087.9">Tree Element</tspan>
      <tspan x="1160" y="1103.9">Instance and</tspan>
      <tspan x="1160" y="1119.9">Profile</tspan>
    </text>
  </g>
  <g>
    <rect style="fill: #ffffff" x="1280" y="1060" width="180" height="80"/>
    <rect style="fill: none; fill-opacity:0; stroke-width: 2; stroke: #000000" x="1280" y="1060" width="180" height="80"/>
    <text font-size="12.7998" style="fill: #000000;text-anchor:middle;font-family:sans-serif;font-style:normal;font-weight:normal" x="1370" y="1095.9">
      <tspan x="1370" y="1095.9">Tree Version Element</tspan>
      <tspan x="1370" y="1111.9">Tree structure/Paths</tspan>
    </text>
  </g>
  <text font-size="12.7998" style="fill: #000000;text-anchor:start;font-family:sans-serif;font-style:normal;font-weight:normal" x="1360" y="1080">
    <tspan x="1360" y="1080"></tspan>
  </text>
  <g>
    <rect style="fill: #ffffff" x="1520" y="1060" width="80" height="80"/>
    <rect style="fill: none; fill-opacity:0; stroke-width: 2; stroke: #000000" x="1520" y="1060" width="80" height="80"/>
    <text font-size="12.7998" style="fill: #000000;text-anchor:middle;font-family:sans-serif;font-style:normal;font-weight:normal" x="1560" y="1095.9">
      <tspan x="1560" y="1095.9">TVE:TV</tspan>
      <tspan x="1560" y="1111.9">TaxonId</tspan>
    </text>
  </g>
  <g>
    <line style="fill: none; fill-opacity:0; stroke-width: 2; stroke: #000000" x1="1519.09" y1="1100" x2="1470.7" y2="1100"/>
    <polygon style="fill: #000000" points="1463.2,1100 1473.2,1095 1470.7,1100 1473.2,1105 "/>
    <polygon style="fill: none; fill-opacity:0; stroke-width: 2; stroke: #000000" points="1463.2,1100 1473.2,1095 1470.7,1100 1473.2,1105 "/>
  </g>
  <g>
    <line style="fill: none; fill-opacity:0; stroke-width: 2; stroke: #000000" x1="1279.02" y1="1100" x2="1230.7" y2="1100"/>
    <polygon style="fill: #000000" points="1223.2,1100 1233.2,1095 1230.7,1100 1233.2,1105 "/>
    <polygon style="fill: none; fill-opacity:0; stroke-width: 2; stroke: #000000" points="1223.2,1100 1233.2,1095 1230.7,1100 1233.2,1105 "/>
  </g>
  <line style="fill: none; fill-opacity:0; stroke-width: 2; stroke-dasharray: 20; stroke: #000000" x1="1370" y1="860.742" x2="1370" y2="1059.26"/>
  <g>
    <line style="fill: none; fill-opacity:0; stroke-width: 2; stroke: #00ff00" x1="1600.94" y1="812.126" x2="1749.47" y2="783.563"/>
    <polygon style="fill: #00ff00" points="1756.83,782.147 1747.96,788.946 1749.47,783.563 1746.07,779.126 "/>
    <polygon style="fill: none; fill-opacity:0; stroke-width: 2; stroke: #00ff00" points="1756.83,782.147 1747.96,788.946 1749.47,783.563 1746.07,779.126 "/>
  </g>
  <g>
    <line style="fill: none; fill-opacity:0; stroke-width: 2; stroke: #00ff00" x1="1592.28" y1="1059.03" x2="1789.57" y2="808.625"/>
    <polygon style="fill: #00ff00" points="1794.21,802.734 1791.95,813.683 1789.57,808.625 1784.09,807.495 "/>
    <polygon style="fill: none; fill-opacity:0; stroke-width: 2; stroke: #00ff00" points="1794.21,802.734 1791.95,813.683 1789.57,808.625 1784.09,807.495 "/>
  </g>
  <g>
    <rect style="fill: #ffffff" x="1280" y="1200" width="180" height="80"/>
    <rect style="fill: none; fill-opacity:0; stroke-width: 2; stroke: #000000" x="1280" y="1200" width="180" height="80"/>
    <text font-size="12.7998" style="fill: #000000;text-anchor:middle;font-family:sans-serif;font-style:normal;font-weight:normal" x="1370" y="1235.9">
      <tspan x="1370" y="1235.9">Tree Version Element</tspan>
      <tspan x="1370" y="1251.9">Tree structure/Paths</tspan>
    </text>
  </g>
  <text font-size="12.7998" style="fill: #000000;text-anchor:start;font-family:sans-serif;font-style:normal;font-weight:normal" x="1360" y="1220">
    <tspan x="1360" y="1220"></tspan>
  </text>
  <g>
    <rect style="fill: #ffffff" x="1520" y="1200" width="80" height="80"/>
    <rect style="fill: none; fill-opacity:0; stroke-width: 2; stroke: #000000" x="1520" y="1200" width="80" height="80"/>
    <text font-size="12.7998" style="fill: #000000;text-anchor:middle;font-family:sans-serif;font-style:normal;font-weight:normal" x="1560" y="1235.9">
      <tspan x="1560" y="1235.9">TVE:TV</tspan>
      <tspan x="1560" y="1251.9">TaxonId</tspan>
    </text>
  </g>
  <g>
    <line style="fill: none; fill-opacity:0; stroke-width: 2; stroke: #000000" x1="1519.09" y1="1240" x2="1470.7" y2="1240"/>
    <polygon style="fill: #000000" points="1463.2,1240 1473.2,1235 1470.7,1240 1473.2,1245 "/>
    <polygon style="fill: none; fill-opacity:0; stroke-width: 2; stroke: #000000" points="1463.2,1240 1473.2,1235 1470.7,1240 1473.2,1245 "/>
  </g>
  <g>
    <line style="fill: none; fill-opacity:0; stroke-width: 2; stroke: #000000" x1="1308.89" y1="1199.26" x2="1229.06" y2="1146.04"/>
    <polygon style="fill: #000000" points="1222.82,1141.88 1233.91,1143.27 1229.06,1146.04 1228.37,1151.59 "/>
    <polygon style="fill: none; fill-opacity:0; stroke-width: 2; stroke: #000000" points="1222.82,1141.88 1233.91,1143.27 1229.06,1146.04 1228.37,1151.59 "/>
  </g>
  <g>
    <rect style="fill: #ffffff" x="1100" y="1340" width="120" height="80"/>
    <rect style="fill: none; fill-opacity:0; stroke-width: 2; stroke: #000000" x="1100" y="1340" width="120" height="80"/>
    <text font-size="12.7998" style="fill: #000000;text-anchor:middle;font-family:sans-serif;font-style:normal;font-weight:normal" x="1160" y="1367.9">
      <tspan x="1160" y="1367.9">Tree Element</tspan>
      <tspan x="1160" y="1383.9">Instance and</tspan>
      <tspan x="1160" y="1399.9">Profile</tspan>
    </text>
  </g>
  <g>
    <rect style="fill: #ffffff" x="1280" y="1340" width="180" height="80"/>
    <rect style="fill: none; fill-opacity:0; stroke-width: 2; stroke: #000000" x="1280" y="1340" width="180" height="80"/>
    <text font-size="12.7998" style="fill: #000000;text-anchor:middle;font-family:sans-serif;font-style:normal;font-weight:normal" x="1370" y="1375.9">
      <tspan x="1370" y="1375.9">Tree Version Element</tspan>
      <tspan x="1370" y="1391.9">Tree structure/Paths</tspan>
    </text>
  </g>
  <text font-size="12.7998" style="fill: #000000;text-anchor:start;font-family:sans-serif;font-style:normal;font-weight:normal" x="1360" y="1360">
    <tspan x="1360" y="1360"></tspan>
  </text>
  <g>
    <rect style="fill: #ffffff" x="1520" y="1340" width="80" height="80"/>
    <rect style="fill: none; fill-opacity:0; stroke-width: 2; stroke: #000000" x="1520" y="1340" width="80" height="80"/>
    <text font-size="12.7998" style="fill: #000000;text-anchor:middle;font-family:sans-serif;font-style:normal;font-weight:normal" x="1560" y="1375.9">
      <tspan x="1560" y="1375.9">TVE:TV</tspan>
      <tspan x="1560" y="1391.9">TaxonId</tspan>
    </text>
  </g>
  <g>
    <line style="fill: none; fill-opacity:0; stroke-width: 2; stroke: #000000" x1="1519.09" y1="1380" x2="1470.7" y2="1380"/>
    <polygon style="fill: #000000" points="1463.2,1380 1473.2,1375 1470.7,1380 1473.2,1385 "/>
    <polygon style="fill: none; fill-opacity:0; stroke-width: 2; stroke: #000000" points="1463.2,1380 1473.2,1375 1470.7,1380 1473.2,1385 "/>
  </g>
  <g>
    <line style="fill: none; fill-opacity:0; stroke-width: 2; stroke: #000000" x1="1279.02" y1="1380" x2="1230.7" y2="1380"/>
    <polygon style="fill: #000000" points="1223.2,1380 1233.2,1375 1230.7,1380 1233.2,1385 "/>
    <polygon style="fill: none; fill-opacity:0; stroke-width: 2; stroke: #000000" points="1223.2,1380 1233.2,1375 1230.7,1380 1233.2,1385 "/>
  </g>
  <g>
    <rect style="fill: #ffffff" x="1780" y="1000" width="120" height="60"/>
    <rect style="fill: none; fill-opacity:0; stroke-width: 2; stroke: #0000ff" x="1780" y="1000" width="120" height="60"/>
    <text font-size="12.7998" style="fill: #000000;text-anchor:middle;font-family:sans-serif;font-style:normal;font-weight:normal" x="1840" y="1033.9">
      <tspan x="1840" y="1033.9">Tree_version</tspan>
    </text>
  </g>
  <g>
    <line style="fill: none; fill-opacity:0; stroke-width: 2; stroke: #000000" x1="1870.98" y1="999.016" x2="1942.13" y2="927.868"/>
    <polygon style="fill: #000000" points="1947.43,922.565 1943.9,933.172 1942.13,927.868 1936.83,926.101 "/>
    <polygon style="fill: none; fill-opacity:0; stroke-width: 2; stroke: #000000" points="1947.43,922.565 1943.9,933.172 1942.13,927.868 1936.83,926.101 "/>
  </g>
  <g>
    <line style="fill: none; fill-opacity:0; stroke-width: 2; stroke: #0000ff" x1="1597.03" y1="760.992" x2="1805.47" y2="991.773"/>
    <polygon style="fill: #0000ff" points="1810.5,997.339 1800.09,993.269 1805.47,991.773 1807.51,986.566 "/>
    <polygon style="fill: none; fill-opacity:0; stroke-width: 2; stroke: #0000ff" points="1810.5,997.339 1800.09,993.269 1805.47,991.773 1807.51,986.566 "/>
  </g>
  <g>
    <line style="fill: none; fill-opacity:0; stroke-width: 2; stroke: #0000ff" x1="1600.74" y1="918.916" x2="1770.18" y2="997.582"/>
    <polygon style="fill: #0000ff" points="1776.98,1000.74 1765.8,1001.06 1770.18,997.582 1770.01,991.994 "/>
    <polygon style="fill: none; fill-opacity:0; stroke-width: 2; stroke: #0000ff" points="1776.98,1000.74 1765.8,1001.06 1770.18,997.582 1770.01,991.994 "/>
  </g>
  <g>
    <line style="fill: none; fill-opacity:0; stroke-width: 2; stroke: #0000ff" x1="1600.74" y1="1209.44" x2="1790.89" y2="1066.83"/>
    <polygon style="fill: #0000ff" points="1796.89,1062.33 1791.89,1072.33 1790.89,1066.83 1785.89,1064.33 "/>
    <polygon style="fill: none; fill-opacity:0; stroke-width: 2; stroke: #0000ff" points="1796.89,1062.33 1791.89,1072.33 1790.89,1066.83 1785.89,1064.33 "/>
  </g>
  <g>
    <line style="fill: none; fill-opacity:0; stroke-width: 2; stroke: #0000ff" x1="1591.72" y1="1340.35" x2="1809.14" y2="1068.58"/>
    <polygon style="fill: #0000ff" points="1813.82,1062.72 1811.48,1073.65 1809.14,1068.58 1803.67,1067.41 "/>
    <polygon style="fill: none; fill-opacity:0; stroke-width: 2; stroke: #0000ff" points="1813.82,1062.72 1811.48,1073.65 1809.14,1068.58 1803.67,1067.41 "/>
  </g>
  <g>
    <rect style="fill: #ffffff" x="1520" y="680" width="80" height="80"/>
    <rect style="fill: none; fill-opacity:0; stroke-width: 2; stroke: #000000" x="1520" y="680" width="80" height="80"/>
    <text font-size="12.7998" style="fill: #000000;text-anchor:middle;font-family:sans-serif;font-style:normal;font-weight:normal" x="1560" y="715.9">
      <tspan x="1560" y="715.9">TVE:TV</tspan>
      <tspan x="1560" y="731.9">TaxonId</tspan>
    </text>
  </g>
  <g>
    <rect style="fill: #ffffff" x="1520" y="860" width="80" height="80"/>
    <rect style="fill: none; fill-opacity:0; stroke-width: 2; stroke: #000000" x="1520" y="860" width="80" height="80"/>
    <text font-size="12.7998" style="fill: #000000;text-anchor:middle;font-family:sans-serif;font-style:normal;font-weight:normal" x="1560" y="895.9">
      <tspan x="1560" y="895.9">TVE:TV</tspan>
      <tspan x="1560" y="911.9">TaxonId</tspan>
    </text>
  </g>
</svg>
